<mxfile host="65bd71144e">
    <diagram id="weO1gK1oRwMt27438yl5" name="Página-1">
        <mxGraphModel dx="1430" dy="341" grid="1" gridSize="10" guides="1" tooltips="1" connect="1" arrows="1" fold="1" page="1" pageScale="1" pageWidth="827" pageHeight="1169" math="0" shadow="0">
            <root>
                <mxCell id="0"/>
                <mxCell id="1" parent="0"/>
                <mxCell id="2" value="" style="ellipse;whiteSpace=wrap;html=1;" vertex="1" parent="1">
                    <mxGeometry x="240" y="30" width="160" height="60" as="geometry"/>
                </mxCell>
                <mxCell id="37" value="1" style="text;html=1;strokeColor=none;fillColor=none;align=center;verticalAlign=middle;whiteSpace=wrap;rounded=0;fontSize=14;" vertex="1" parent="1">
                    <mxGeometry x="-90" y="910" width="60" height="30" as="geometry"/>
                </mxCell>
                <mxCell id="38" value="" style="rhombus;whiteSpace=wrap;html=1;fontSize=14;" vertex="1" parent="1">
                    <mxGeometry x="230" y="210" width="180" height="100" as="geometry"/>
                </mxCell>
                <mxCell id="39" value="Intento==numero" style="text;html=1;strokeColor=none;fillColor=none;align=center;verticalAlign=middle;whiteSpace=wrap;rounded=0;fontSize=14;" vertex="1" parent="1">
                    <mxGeometry x="280" y="220" width="80" height="80" as="geometry"/>
                </mxCell>
                <mxCell id="40" value="" style="endArrow=classic;html=1;fontSize=14;exitX=1;exitY=0.5;exitDx=0;exitDy=0;" edge="1" parent="1" source="38">
                    <mxGeometry width="50" height="50" relative="1" as="geometry">
                        <mxPoint x="320" y="320" as="sourcePoint"/>
                        <mxPoint x="500" y="340" as="targetPoint"/>
                        <Array as="points">
                            <mxPoint x="500" y="260"/>
                        </Array>
                    </mxGeometry>
                </mxCell>
                <mxCell id="41" value="" style="rounded=0;whiteSpace=wrap;html=1;fontSize=14;" vertex="1" parent="1">
                    <mxGeometry x="420" y="340" width="160" height="60" as="geometry"/>
                </mxCell>
                <mxCell id="42" value="Ha acertado el número" style="text;html=1;strokeColor=none;fillColor=none;align=center;verticalAlign=middle;whiteSpace=wrap;rounded=0;fontSize=14;" vertex="1" parent="1">
                    <mxGeometry x="425" y="355" width="150" height="30" as="geometry"/>
                </mxCell>
                <mxCell id="43" value="SI" style="text;html=1;strokeColor=none;fillColor=none;align=center;verticalAlign=middle;whiteSpace=wrap;rounded=0;fontSize=14;" vertex="1" parent="1">
                    <mxGeometry x="440" y="230" width="60" height="30" as="geometry"/>
                </mxCell>
                <mxCell id="44" value="" style="endArrow=classic;html=1;fontSize=14;exitX=0;exitY=0.5;exitDx=0;exitDy=0;" edge="1" parent="1" source="38">
                    <mxGeometry width="50" height="50" relative="1" as="geometry">
                        <mxPoint x="320" y="310" as="sourcePoint"/>
                        <mxPoint x="140" y="340" as="targetPoint"/>
                        <Array as="points">
                            <mxPoint x="140" y="260"/>
                        </Array>
                    </mxGeometry>
                </mxCell>
                <mxCell id="45" value="NO" style="text;html=1;strokeColor=none;fillColor=none;align=center;verticalAlign=middle;whiteSpace=wrap;rounded=0;fontSize=14;" vertex="1" parent="1">
                    <mxGeometry x="140" y="230" width="60" height="30" as="geometry"/>
                </mxCell>
                <mxCell id="46" value="" style="rhombus;whiteSpace=wrap;html=1;fontSize=14;" vertex="1" parent="1">
                    <mxGeometry x="70" y="340" width="140" height="120" as="geometry"/>
                </mxCell>
                <mxCell id="47" value="Intento&amp;gt;numero" style="text;html=1;strokeColor=none;fillColor=none;align=center;verticalAlign=middle;whiteSpace=wrap;rounded=0;fontSize=14;" vertex="1" parent="1">
                    <mxGeometry x="110" y="385" width="60" height="30" as="geometry"/>
                </mxCell>
                <mxCell id="48" value="" style="endArrow=classic;html=1;fontSize=14;exitX=0;exitY=0.5;exitDx=0;exitDy=0;" edge="1" parent="1" source="46">
                    <mxGeometry width="50" height="50" relative="1" as="geometry">
                        <mxPoint x="120" y="450" as="sourcePoint"/>
                        <mxPoint x="10" y="500" as="targetPoint"/>
                        <Array as="points">
                            <mxPoint x="10" y="400"/>
                        </Array>
                    </mxGeometry>
                </mxCell>
                <mxCell id="49" value="SI" style="text;html=1;strokeColor=none;fillColor=none;align=center;verticalAlign=middle;whiteSpace=wrap;rounded=0;fontSize=14;" vertex="1" parent="1">
                    <mxGeometry x="10" y="370" width="60" height="30" as="geometry"/>
                </mxCell>
                <mxCell id="50" value="" style="endArrow=classic;html=1;fontSize=14;exitX=1;exitY=0.5;exitDx=0;exitDy=0;entryX=0.5;entryY=0;entryDx=0;entryDy=0;" edge="1" parent="1" source="46" target="55">
                    <mxGeometry width="50" height="50" relative="1" as="geometry">
                        <mxPoint x="120" y="450" as="sourcePoint"/>
                        <mxPoint x="280" y="490" as="targetPoint"/>
                        <Array as="points">
                            <mxPoint x="280" y="400"/>
                        </Array>
                    </mxGeometry>
                </mxCell>
                <mxCell id="51" value="NO" style="text;html=1;strokeColor=none;fillColor=none;align=center;verticalAlign=middle;whiteSpace=wrap;rounded=0;fontSize=14;" vertex="1" parent="1">
                    <mxGeometry x="220" y="370" width="60" height="30" as="geometry"/>
                </mxCell>
                <mxCell id="52" value="" style="rounded=0;whiteSpace=wrap;html=1;fontSize=14;" vertex="1" parent="1">
                    <mxGeometry x="-90" y="500" width="200" height="50" as="geometry"/>
                </mxCell>
                <mxCell id="54" value="El número es menor" style="text;html=1;strokeColor=none;fillColor=none;align=center;verticalAlign=middle;whiteSpace=wrap;rounded=0;fontSize=14;" vertex="1" parent="1">
                    <mxGeometry x="-70" y="510" width="160" height="30" as="geometry"/>
                </mxCell>
                <mxCell id="55" value="" style="rounded=0;whiteSpace=wrap;html=1;fontSize=14;" vertex="1" parent="1">
                    <mxGeometry x="170" y="500" width="220" height="50" as="geometry"/>
                </mxCell>
                <mxCell id="56" value="El numero es mayor" style="text;html=1;strokeColor=none;fillColor=none;align=center;verticalAlign=middle;whiteSpace=wrap;rounded=0;fontSize=14;" vertex="1" parent="1">
                    <mxGeometry x="200" y="510" width="170" height="30" as="geometry"/>
                </mxCell>
                <mxCell id="57" value="" style="endArrow=classic;html=1;fontSize=14;exitX=0.5;exitY=1;exitDx=0;exitDy=0;" edge="1" parent="1" source="2">
                    <mxGeometry width="50" height="50" relative="1" as="geometry">
                        <mxPoint x="280" y="200" as="sourcePoint"/>
                        <mxPoint x="320" y="130" as="targetPoint"/>
                    </mxGeometry>
                </mxCell>
                <mxCell id="58" value="" style="rounded=0;whiteSpace=wrap;html=1;fontSize=14;" vertex="1" parent="1">
                    <mxGeometry x="240" y="130" width="160" height="60" as="geometry"/>
                </mxCell>
                <mxCell id="59" value="Insertar numero" style="text;html=1;strokeColor=none;fillColor=none;align=center;verticalAlign=middle;whiteSpace=wrap;rounded=0;fontSize=14;" vertex="1" parent="1">
                    <mxGeometry x="255" y="145" width="135" height="30" as="geometry"/>
                </mxCell>
                <mxCell id="60" value="" style="endArrow=classic;html=1;fontSize=14;exitX=0.5;exitY=1;exitDx=0;exitDy=0;entryX=0.5;entryY=0;entryDx=0;entryDy=0;" edge="1" parent="1" source="58" target="38">
                    <mxGeometry width="50" height="50" relative="1" as="geometry">
                        <mxPoint x="280" y="200" as="sourcePoint"/>
                        <mxPoint x="330" y="150" as="targetPoint"/>
                    </mxGeometry>
                </mxCell>
                <mxCell id="61" value="" style="endArrow=classic;html=1;fontSize=14;exitX=0;exitY=0.5;exitDx=0;exitDy=0;entryX=0;entryY=0.5;entryDx=0;entryDy=0;" edge="1" parent="1" source="52" target="58">
                    <mxGeometry width="50" height="50" relative="1" as="geometry">
                        <mxPoint x="-50" y="450" as="sourcePoint"/>
                        <mxPoint y="400" as="targetPoint"/>
                        <Array as="points">
                            <mxPoint x="-90" y="160"/>
                        </Array>
                    </mxGeometry>
                </mxCell>
                <mxCell id="62" value="" style="endArrow=classic;html=1;fontSize=14;exitX=1;exitY=0.5;exitDx=0;exitDy=0;entryX=1;entryY=0.5;entryDx=0;entryDy=0;" edge="1" parent="1" source="55" target="58">
                    <mxGeometry width="50" height="50" relative="1" as="geometry">
                        <mxPoint x="470" y="560" as="sourcePoint"/>
                        <mxPoint x="480" y="190" as="targetPoint"/>
                        <Array as="points">
                            <mxPoint x="710" y="525"/>
                            <mxPoint x="710" y="160"/>
                        </Array>
                    </mxGeometry>
                </mxCell>
                <mxCell id="63" value="" style="endArrow=classic;html=1;fontSize=14;exitX=0.5;exitY=1;exitDx=0;exitDy=0;" edge="1" parent="1" source="41">
                    <mxGeometry width="50" height="50" relative="1" as="geometry">
                        <mxPoint x="300" y="430" as="sourcePoint"/>
                        <mxPoint x="500" y="440" as="targetPoint"/>
                    </mxGeometry>
                </mxCell>
                <mxCell id="64" value="" style="ellipse;whiteSpace=wrap;html=1;fontSize=14;" vertex="1" parent="1">
                    <mxGeometry x="440" y="440" width="120" height="50" as="geometry"/>
                </mxCell>
                <mxCell id="65" value="FIN" style="text;html=1;strokeColor=none;fillColor=none;align=center;verticalAlign=middle;whiteSpace=wrap;rounded=0;fontSize=14;" vertex="1" parent="1">
                    <mxGeometry x="470" y="450" width="60" height="30" as="geometry"/>
                </mxCell>
                <mxCell id="66" value="INICIO" style="text;html=1;strokeColor=none;fillColor=none;align=center;verticalAlign=middle;whiteSpace=wrap;rounded=0;fontSize=14;" vertex="1" parent="1">
                    <mxGeometry x="292.5" y="45" width="60" height="30" as="geometry"/>
                </mxCell>
            </root>
        </mxGraphModel>
    </diagram>
</mxfile>